<?xml version="1.0" encoding="UTF-8"?>
<svg xmlns="http://www.w3.org/2000/svg" xmlns:xlink="http://www.w3.org/1999/xlink" viewBox="0 0 18 18" width="18px" height="18px">
<g id="surface18971584">
<path style=" stroke:none;fill-rule:nonzero;fill:rgb(100%,100%,100%);fill-opacity:1;" d="M 15.226562 4.195312 C 14.984375 3.828125 14.640625 3.546875 14.230469 3.382812 C 13.34375 3.027344 12.582031 2.789062 11.898438 2.65625 C 11.417969 2.5625 10.945312 2.796875 10.71875 3.238281 L 10.660156 3.351562 C 10.15625 3.296875 9.617188 3.277344 9.007812 3.292969 C 8.378906 3.277344 7.84375 3.296875 7.335938 3.351562 L 7.277344 3.238281 C 7.050781 2.796875 6.578125 2.5625 6.097656 2.65625 C 5.417969 2.789062 4.652344 3.027344 3.765625 3.382812 C 3.359375 3.546875 3.011719 3.828125 2.769531 4.195312 C 1.070312 6.761719 0.402344 9.53125 0.734375 12.660156 C 0.746094 12.769531 0.808594 12.867188 0.898438 12.925781 C 2.207031 13.75 3.339844 14.316406 4.460938 14.703125 C 4.929688 14.867188 5.449219 14.683594 5.726562 14.261719 L 6.21875 13.503906 C 5.828125 13.355469 5.445312 13.179688 5.074219 12.972656 C 4.902344 12.875 4.84375 12.652344 4.941406 12.480469 C 5.039062 12.308594 5.257812 12.246094 5.433594 12.347656 C 6.527344 12.972656 7.765625 13.300781 9.011719 13.300781 C 10.257812 13.300781 11.496094 12.972656 12.589844 12.347656 C 12.761719 12.246094 12.984375 12.308594 13.082031 12.480469 C 13.179688 12.652344 13.121094 12.875 12.949219 12.972656 C 12.566406 13.1875 12.167969 13.371094 11.761719 13.519531 L 12.269531 14.277344 C 12.480469 14.589844 12.824219 14.765625 13.179688 14.765625 C 13.296875 14.765625 13.414062 14.746094 13.527344 14.707031 C 14.652344 14.320312 15.785156 13.753906 17.097656 12.925781 C 17.191406 12.867188 17.25 12.769531 17.261719 12.660156 C 17.59375 9.53125 16.925781 6.761719 15.226562 4.195312 Z M 6.699219 10.433594 C 6.003906 10.433594 5.433594 9.703125 5.433594 8.816406 C 5.433594 7.929688 6.003906 7.199219 6.699219 7.199219 C 7.390625 7.199219 7.960938 7.929688 7.960938 8.816406 C 7.960938 9.703125 7.390625 10.433594 6.699219 10.433594 Z M 11.375 10.425781 C 10.691406 10.425781 10.125 9.691406 10.125 8.796875 C 10.125 7.902344 10.691406 7.167969 11.375 7.167969 C 12.0625 7.167969 12.628906 7.902344 12.628906 8.796875 C 12.628906 9.691406 12.0625 10.425781 11.375 10.425781 Z M 11.375 10.425781 "/>
</g>
</svg>
