<svg width="17" height="17" viewBox="0 0 17 17" fill="none" xmlns="http://www.w3.org/2000/svg">
<path d="M9.20833 5.66667C9.77192 5.66667 10.3124 5.89055 10.7109 6.28906C11.1095 6.68758 11.3333 7.22808 11.3333 7.79167C11.3333 7.97953 11.408 8.1597 11.5408 8.29253C11.6736 8.42537 11.8538 8.5 12.0417 8.5C12.2295 8.5 12.4097 8.42537 12.5425 8.29253C12.6754 8.1597 12.75 7.97953 12.75 7.79167C12.75 6.85236 12.3769 5.95152 11.7127 5.28733C11.0485 4.62314 10.1476 4.25 9.20833 4.25C9.02047 4.25 8.8403 4.32463 8.70747 4.45747C8.57463 4.5903 8.5 4.77047 8.5 4.95833C8.5 5.14619 8.57463 5.32636 8.70747 5.4592C8.8403 5.59204 9.02047 5.66667 9.20833 5.66667Z" fill="#F8F8F8"/>
<path d="M9.20832 2.83333C10.5234 2.83333 11.7845 3.35573 12.7144 4.2856C13.6443 5.21546 14.1667 6.47664 14.1667 7.79167C14.1667 7.97953 14.2413 8.1597 14.3741 8.29253C14.507 8.42537 14.6871 8.5 14.875 8.5C15.0629 8.5 15.243 8.42537 15.3759 8.29253C15.5087 8.1597 15.5833 7.97953 15.5833 7.79167C15.5833 6.10091 14.9117 4.47941 13.7161 3.28386C12.5206 2.08832 10.8991 1.41667 9.20832 1.41667C9.02046 1.41667 8.84029 1.49129 8.70746 1.62413C8.57462 1.75697 8.49999 1.93714 8.49999 2.125C8.49999 2.31286 8.57462 2.49303 8.70746 2.62587C8.84029 2.75871 9.02046 2.83333 9.20832 2.83333ZM15.4062 11.2696C15.3673 11.1559 15.3 11.0539 15.2108 10.9734C15.1216 10.8929 15.0133 10.8363 14.8962 10.8092L10.6462 9.83875C10.5309 9.81259 10.4108 9.81574 10.297 9.84791C10.1831 9.88008 10.0792 9.94025 9.99457 10.0229C9.89541 10.115 9.88832 10.1221 9.42791 11.0004C7.90017 10.2964 6.67603 9.06727 5.97832 7.53667C6.87791 7.08333 6.88499 7.08333 6.97707 6.97708C7.05974 6.89248 7.11991 6.78852 7.15208 6.67468C7.18425 6.56085 7.1874 6.44078 7.16124 6.32542L6.19082 2.125C6.16366 2.00791 6.10714 1.89966 6.02659 1.81044C5.94604 1.72122 5.84412 1.65396 5.73041 1.615C5.56499 1.55592 5.39417 1.51321 5.22041 1.4875C5.04138 1.44599 4.85868 1.42226 4.67499 1.41667C3.81083 1.41667 2.98206 1.75995 2.371 2.37101C1.75994 2.98207 1.41666 3.81084 1.41666 4.675C1.4204 7.56692 2.57088 10.3393 4.61577 12.3842C6.66067 14.4291 9.43307 15.5796 12.325 15.5833C12.7529 15.5833 13.1766 15.4991 13.5719 15.3353C13.9672 15.1716 14.3264 14.9316 14.629 14.629C14.9315 14.3264 15.1715 13.9672 15.3353 13.5719C15.499 13.1766 15.5833 12.7529 15.5833 12.325C15.5835 12.1447 15.5693 11.9647 15.5408 11.7867C15.5111 11.6107 15.466 11.4377 15.4062 11.2696Z" fill="#F8F8F8"/>
</svg>
